<svg width="22" height="22" viewBox="0 0 22 22" fill="none" xmlns="http://www.w3.org/2000/svg">
<g clip-path="url(#clip0_229_24)">
<path d="M6.875 18.5625L6.875 17.1875L15.4687 17.1875L15.4688 18.5625L6.875 18.5625Z" fill="white"/>
<path d="M6.875 15.8125L6.875 14.4375L15.4687 14.4375L15.4688 15.8125L6.875 15.8125Z" fill="white"/>
<path d="M6.875 13.0625L6.875 11.6875L15.4687 11.6875L15.4688 13.0625L6.875 13.0625Z" fill="white"/>
<path d="M6.875 10.3125L6.875 8.9375L15.4687 8.9375L15.4688 10.3125L6.875 10.3125Z" fill="white"/>
<path d="M6.875 7.5625L6.875 6.1875L15.4687 6.1875L15.4688 7.5625L6.875 7.5625Z" fill="white"/>
<path d="M7.5625 3.4369L5.13863 3.4369C4.86757 3.43957 4.60863 3.54963 4.4186 3.74296C4.22858 3.93628 4.12299 4.19708 4.125 4.46815L4.125 20.2813C4.12299 20.5523 4.22858 20.8131 4.4186 21.0064C4.60863 21.1998 4.86757 21.3098 5.13863 21.3125L17.2051 21.3125C17.4762 21.3098 17.7351 21.1998 17.9251 21.0064C18.1152 20.8131 18.2208 20.5523 18.2187 20.2812L18.2187 4.46815C18.2208 4.19708 18.1152 3.93628 17.9251 3.74296C17.7351 3.54963 17.4762 3.43957 17.2051 3.4369L14.7812 3.4369L14.7812 0.686899L7.5625 0.686899L7.5625 3.4369ZM13.4062 2.0619L13.4062 4.8119L16.8437 4.8119L16.8437 19.9375L5.5 19.9375L5.5 4.8119L8.9375 4.8119L8.9375 2.0619L13.4062 2.0619Z" fill="white"/>
</g>
<defs>
<clipPath id="clip0_229_24">
<rect width="22" height="22" fill="white" transform="translate(0 22) rotate(-90)"/>
</clipPath>
</defs>
</svg>
