<svg width="36" height="11" viewBox="0 0 36 11" fill="none" xmlns="http://www.w3.org/2000/svg">
<path d="M0.825989 1.25022C0.825989 0.876918 0.970687 0.587518 1.25999 0.382218C1.55869 0.176918 2.00199 0.0742188 2.58999 0.0742188V3.32222C2.45929 3.42492 2.35669 3.51822 2.28199 3.60222L2.33799 3.67222C2.58999 3.42952 2.91669 3.23822 3.31799 3.09822C3.72869 2.94892 4.10669 2.87422 4.45199 2.87422C5.28269 2.87422 5.94529 3.10752 6.43999 3.57422C6.93469 4.03152 7.18199 4.63352 7.18199 5.38022V7.60622C7.18199 8.09152 7.06069 8.52552 6.81799 8.90822C6.57529 9.29092 6.24869 9.58952 5.83799 9.80422C5.42729 10.0189 4.98869 10.1262 4.52199 10.1262C4.02729 10.1262 3.59329 10.0282 3.21999 9.83222C2.85599 9.62692 2.52469 9.32822 2.22599 8.93622L2.16999 8.99222C2.20729 9.05752 2.25399 9.12292 2.30999 9.18822C2.36599 9.25352 2.40799 9.30492 2.43599 9.34222C2.43599 9.60352 2.30999 9.79952 2.05799 9.93022C1.80599 10.0609 1.39529 10.1262 0.825989 10.1262V1.25022ZM4.00399 8.61422C4.47069 8.61422 4.82529 8.52092 5.06799 8.33422C5.31999 8.13822 5.44599 7.85352 5.44599 7.48022V5.49222C5.44599 5.13752 5.31999 4.86692 5.06799 4.68022C4.81599 4.48422 4.46129 4.38622 4.00399 4.38622C3.59329 4.38622 3.24799 4.48892 2.96799 4.69422C2.69729 4.89952 2.56199 5.14692 2.56199 5.43622V7.55022C2.56199 7.85822 2.69729 8.11492 2.96799 8.32022C3.23869 8.51622 3.58399 8.61422 4.00399 8.61422ZM11.794 10.1262C11.2153 10.1262 10.688 10.0142 10.212 9.79022C9.73599 9.55692 9.35799 9.24422 9.07799 8.85222C8.79799 8.45092 8.65799 8.00292 8.65799 7.50822V5.64622C8.65799 5.12352 8.80269 4.65222 9.09199 4.23222C9.38129 3.81222 9.76399 3.48092 10.24 3.23822C10.7253 2.99552 11.248 2.87422 11.808 2.87422C12.3587 2.87422 12.8627 2.99092 13.32 3.22422C13.7867 3.44822 14.1553 3.76552 14.426 4.17622C14.6967 4.57752 14.832 5.03952 14.832 5.56222V6.34622C14.832 6.55152 14.7527 6.72422 14.594 6.86422C14.4447 7.00422 14.2533 7.07422 14.02 7.07422H10.352V7.38222C10.352 7.78352 10.4733 8.11022 10.716 8.36222C10.9587 8.61422 11.3227 8.74022 11.808 8.74022C12.2747 8.74022 12.62 8.63752 12.844 8.43222C13.0773 8.22692 13.194 7.96092 13.194 7.63422C13.362 7.61552 13.4787 7.60622 13.544 7.60622C13.8893 7.60622 14.16 7.68552 14.356 7.84422C14.552 7.99352 14.65 8.20822 14.65 8.48822C14.65 8.75892 14.524 9.02022 14.272 9.27222C14.02 9.52422 13.6747 9.72952 13.236 9.88822C12.7973 10.0469 12.3167 10.1262 11.794 10.1262ZM13.25 5.82822V5.56222C13.25 5.17022 13.1147 4.85292 12.844 4.61022C12.5733 4.36752 12.2233 4.24622 11.794 4.24622C11.3647 4.24622 11.0147 4.36752 10.744 4.61022C10.4827 4.84352 10.352 5.16092 10.352 5.56222V5.82822H13.25ZM18.2984 10.1262C17.8224 10.1262 17.3838 10.0329 16.9824 9.84622C16.5904 9.65952 16.2731 9.39352 16.0304 9.04822C15.7971 8.69352 15.6804 8.27352 15.6804 7.78822C15.6804 7.30292 15.8064 6.88292 16.0584 6.52822C16.3104 6.16422 16.6511 5.88892 17.0804 5.70222C17.5191 5.50622 17.9998 5.40822 18.5224 5.40822C18.9518 5.40822 19.3344 5.47822 19.6704 5.61822C20.0158 5.74892 20.3331 5.94952 20.6224 6.22022L20.6924 6.15022C20.6084 6.06622 20.4638 5.94022 20.2584 5.77222V5.49222C20.2584 5.10952 20.1231 4.80622 19.8524 4.58222C19.5818 4.35822 19.2038 4.24622 18.7184 4.24622C17.8504 4.24622 17.2111 4.56352 16.8004 5.19822C16.5951 5.13292 16.4224 5.03022 16.2824 4.89022C16.1424 4.74092 16.0724 4.58222 16.0724 4.41422C16.0724 4.13422 16.1984 3.87752 16.4504 3.64422C16.7024 3.41092 17.0431 3.22422 17.4724 3.08422C17.9018 2.94422 18.3684 2.87422 18.8724 2.87422C19.8618 2.87422 20.6271 3.10752 21.1684 3.57422C21.7098 4.03152 21.9804 4.65692 21.9804 5.45022V8.95022C21.9804 9.36092 21.8498 9.65952 21.5884 9.84622C21.3271 10.0329 20.9164 10.1262 20.3564 10.1262V9.55222C20.5151 9.39352 20.6224 9.27692 20.6784 9.20222L20.6224 9.13222C20.3144 9.45892 19.9831 9.70622 19.6284 9.87422C19.2831 10.0422 18.8398 10.1262 18.2984 10.1262ZM18.7464 8.85222C19.2318 8.85222 19.6098 8.75892 19.8804 8.57222C20.1511 8.38552 20.2864 8.11952 20.2864 7.77422C20.2864 7.43822 20.1464 7.17222 19.8664 6.97622C19.5958 6.78022 19.2271 6.68222 18.7604 6.68222C18.3311 6.68222 17.9904 6.78022 17.7384 6.97622C17.4958 7.16292 17.3744 7.42892 17.3744 7.77422C17.3744 8.12892 17.4958 8.39952 17.7384 8.58622C17.9811 8.76352 18.3171 8.85222 18.7464 8.85222ZM26.2518 10.1262C25.4958 10.1262 24.9358 9.90692 24.5718 9.46822C24.2078 9.02952 24.0258 8.46492 24.0258 7.77422V4.30222H22.5838C22.5838 3.86352 22.6678 3.53692 22.8358 3.32222C23.0038 3.10752 23.2278 3.00022 23.5078 3.00022H24.0538V1.83822C24.0538 1.45552 24.1938 1.18492 24.4738 1.02622C24.7538 0.858218 25.1784 0.774219 25.7478 0.774219V3.00022H27.6098C27.6098 3.46692 27.5211 3.80292 27.3438 4.00822C27.1664 4.20422 26.8818 4.30222 26.4898 4.30222H25.7758V7.70422C25.7758 8.03092 25.8364 8.26422 25.9578 8.40422C26.0884 8.54422 26.3078 8.61422 26.6158 8.61422C26.9424 8.61422 27.2691 8.52552 27.5958 8.34822C27.6891 8.43222 27.7638 8.53952 27.8198 8.67022C27.8758 8.79152 27.9038 8.91752 27.9038 9.04822C27.9038 9.32822 27.7591 9.58022 27.4698 9.80422C27.1804 10.0189 26.7744 10.1262 26.2518 10.1262ZM32.0645 10.1262C31.1685 10.1262 30.4452 9.96752 29.8945 9.65022C29.3532 9.32352 29.0778 8.88952 29.0685 8.34822C29.0685 8.11492 29.1618 7.91892 29.3485 7.76022C29.5445 7.60152 29.8525 7.51752 30.2725 7.50822C30.3565 7.91892 30.5525 8.23622 30.8605 8.46022C31.1685 8.67492 31.5418 8.78222 31.9805 8.78222C32.4565 8.78222 32.8298 8.72152 33.1005 8.60022C33.3712 8.47892 33.5065 8.29692 33.5065 8.05422C33.5065 7.83022 33.3945 7.64352 33.1705 7.49422C32.9558 7.34492 32.5265 7.19552 31.8825 7.04622C31.1825 6.87822 30.6365 6.71022 30.2445 6.54222C29.8618 6.37422 29.5772 6.15952 29.3905 5.89822C29.2038 5.63692 29.1105 5.29152 29.1105 4.86222C29.1105 4.26492 29.3625 3.78422 29.8665 3.42022C30.3705 3.05622 31.0612 2.87422 31.9385 2.87422C32.7878 2.87422 33.4925 3.02822 34.0525 3.33622C34.6125 3.63492 34.8925 4.03622 34.8925 4.54022C34.8925 4.79222 34.7992 4.97892 34.6125 5.10022C34.4258 5.22152 34.1178 5.28692 33.6885 5.29622C33.5952 4.92292 33.4178 4.64292 33.1565 4.45622C32.8952 4.26952 32.5265 4.17622 32.0505 4.17622C31.6958 4.17622 31.3878 4.23692 31.1265 4.35822C30.8745 4.47952 30.7485 4.63822 30.7485 4.83422C30.7485 5.03952 30.8558 5.19822 31.0705 5.31022C31.2852 5.42222 31.6585 5.53422 32.1905 5.64622C33.2358 5.87022 33.9918 6.16892 34.4585 6.54222C34.9345 6.91552 35.1725 7.42422 35.1725 8.06822C35.1725 8.69352 34.8925 9.19292 34.3325 9.56622C33.7818 9.93952 33.0258 10.1262 32.0645 10.1262Z" fill="white"/>
</svg>
