<svg width="16" height="16" viewBox="0 0 16 16" fill="none" xmlns="http://www.w3.org/2000/svg">
<path d="M6.00004 14.6654C6.36823 14.6654 6.66671 14.3669 6.66671 13.9987C6.66671 13.6305 6.36823 13.332 6.00004 13.332C5.63185 13.332 5.33337 13.6305 5.33337 13.9987C5.33337 14.3669 5.63185 14.6654 6.00004 14.6654Z" stroke="white" stroke-width="2" stroke-linecap="round" stroke-linejoin="round"/>
<path d="M13.3334 14.6654C13.7015 14.6654 14 14.3669 14 13.9987C14 13.6305 13.7015 13.332 13.3334 13.332C12.9652 13.332 12.6667 13.6305 12.6667 13.9987C12.6667 14.3669 12.9652 14.6654 13.3334 14.6654Z" stroke="white" stroke-width="2" stroke-linecap="round" stroke-linejoin="round"/>
<path d="M0.666687 0.666016H3.33335L5.12002 9.59268C5.18098 9.89961 5.34796 10.1753 5.59172 10.3715C5.83547 10.5678 6.14048 10.672 6.45335 10.666H12.9334C13.2462 10.672 13.5512 10.5678 13.795 10.3715C14.0387 10.1753 14.2057 9.89961 14.2667 9.59268L15.3334 3.99935H4.00002" stroke="white" stroke-width="2" stroke-linecap="round" stroke-linejoin="round"/>
</svg>
