<svg width="69" height="29" viewBox="0 0 69 29" fill="none" xmlns="http://www.w3.org/2000/svg">
<g filter="url(#filter0_d_230_81)">
<path d="M15 2C12.2999 2.05257 9.73087 3.17378 7.85625 5.11775C5.98164 7.06173 4.95446 9.66979 4.99999 12.37V17C4.99999 17.7911 5.23458 18.5645 5.67411 19.2223C6.11363 19.8801 6.73835 20.3928 7.46925 20.6955C8.20016 20.9983 9.00442 21.0775 9.78035 20.9231C10.5563 20.7688 11.269 20.3878 11.8284 19.8284C12.3878 19.269 12.7688 18.5563 12.9231 17.7804C13.0775 17.0044 12.9983 16.2002 12.6955 15.4693C12.3928 14.7384 11.8801 14.1136 11.2223 13.6741C10.5645 13.2346 9.79111 13 8.99999 13C8.29503 13.003 7.60398 13.1964 6.99999 13.56V12.37C6.95436 10.2002 7.77079 8.10075 9.27036 6.53183C10.7699 4.96291 12.8303 4.05245 15 4C17.1697 4.05245 19.23 4.96291 20.7296 6.53183C22.2292 8.10075 23.0456 10.2002 23 12.37V13.56C22.396 13.1964 21.7049 13.003 21 13C20.2089 13 19.4355 13.2346 18.7777 13.6741C18.1199 14.1136 17.6072 14.7384 17.3045 15.4693C17.0017 16.2002 16.9225 17.0044 17.0768 17.7804C17.2312 18.5563 17.6121 19.269 18.1716 19.8284C18.731 20.3878 19.4437 20.7688 20.2196 20.9231C20.9955 21.0775 21.7998 20.9983 22.5307 20.6955C23.2616 20.3928 23.8863 19.8801 24.3259 19.2223C24.7654 18.5645 25 17.7911 25 17V12.37C25.0455 9.66979 24.0183 7.06173 22.1437 5.11775C20.2691 3.17378 17.7001 2.05257 15 2Z" fill="white"/>
</g>
<path d="M33.826 11.2502C33.826 10.8769 33.9707 10.5875 34.26 10.3822C34.5587 10.1769 35.002 10.0742 35.59 10.0742V13.3222C35.4593 13.4249 35.3567 13.5182 35.282 13.6022L35.338 13.6722C35.59 13.4295 35.9167 13.2382 36.318 13.0982C36.7287 12.9489 37.1067 12.8742 37.452 12.8742C38.2827 12.8742 38.9453 13.1075 39.44 13.5742C39.9347 14.0315 40.182 14.6335 40.182 15.3802V17.6062C40.182 18.0915 40.0607 18.5255 39.818 18.9082C39.5753 19.2909 39.2487 19.5895 38.838 19.8042C38.4273 20.0189 37.9887 20.1262 37.522 20.1262C37.0273 20.1262 36.5933 20.0282 36.22 19.8322C35.856 19.6269 35.5247 19.3282 35.226 18.9362L35.17 18.9922C35.2073 19.0575 35.254 19.1229 35.31 19.1882C35.366 19.2535 35.408 19.3049 35.436 19.3422C35.436 19.6035 35.31 19.7995 35.058 19.9302C34.806 20.0609 34.3953 20.1262 33.826 20.1262V11.2502ZM37.004 18.6142C37.4707 18.6142 37.8253 18.5209 38.068 18.3342C38.32 18.1382 38.446 17.8535 38.446 17.4802V15.4922C38.446 15.1375 38.32 14.8669 38.068 14.6802C37.816 14.4842 37.4613 14.3862 37.004 14.3862C36.5933 14.3862 36.248 14.4889 35.968 14.6942C35.6973 14.8995 35.562 15.1469 35.562 15.4362V17.5502C35.562 17.8582 35.6973 18.1149 35.968 18.3202C36.2387 18.5162 36.584 18.6142 37.004 18.6142ZM44.794 20.1262C44.2153 20.1262 43.688 20.0142 43.212 19.7902C42.736 19.5569 42.358 19.2442 42.078 18.8522C41.798 18.4509 41.658 18.0029 41.658 17.5082V15.6462C41.658 15.1235 41.8027 14.6522 42.092 14.2322C42.3813 13.8122 42.764 13.4809 43.24 13.2382C43.7253 12.9955 44.248 12.8742 44.808 12.8742C45.3587 12.8742 45.8627 12.9909 46.32 13.2242C46.7867 13.4482 47.1553 13.7655 47.426 14.1762C47.6967 14.5775 47.832 15.0395 47.832 15.5622V16.3462C47.832 16.5515 47.7527 16.7242 47.594 16.8642C47.4447 17.0042 47.2533 17.0742 47.02 17.0742H43.352V17.3822C43.352 17.7835 43.4733 18.1102 43.716 18.3622C43.9587 18.6142 44.3227 18.7402 44.808 18.7402C45.2747 18.7402 45.62 18.6375 45.844 18.4322C46.0773 18.2269 46.194 17.9609 46.194 17.6342C46.362 17.6155 46.4787 17.6062 46.544 17.6062C46.8893 17.6062 47.16 17.6855 47.356 17.8442C47.552 17.9935 47.65 18.2082 47.65 18.4882C47.65 18.7589 47.524 19.0202 47.272 19.2722C47.02 19.5242 46.6747 19.7295 46.236 19.8882C45.7973 20.0469 45.3167 20.1262 44.794 20.1262ZM46.25 15.8282V15.5622C46.25 15.1702 46.1147 14.8529 45.844 14.6102C45.5733 14.3675 45.2233 14.2462 44.794 14.2462C44.3647 14.2462 44.0147 14.3675 43.744 14.6102C43.4827 14.8435 43.352 15.1609 43.352 15.5622V15.8282H46.25ZM51.2984 20.1262C50.8224 20.1262 50.3838 20.0329 49.9824 19.8462C49.5904 19.6595 49.2731 19.3935 49.0304 19.0482C48.7971 18.6935 48.6804 18.2735 48.6804 17.7882C48.6804 17.3029 48.8064 16.8829 49.0584 16.5282C49.3104 16.1642 49.6511 15.8889 50.0804 15.7022C50.5191 15.5062 50.9998 15.4082 51.5224 15.4082C51.9518 15.4082 52.3344 15.4782 52.6704 15.6182C53.0158 15.7489 53.3331 15.9495 53.6224 16.2202L53.6924 16.1502C53.6084 16.0662 53.4638 15.9402 53.2584 15.7722V15.4922C53.2584 15.1095 53.1231 14.8062 52.8524 14.5822C52.5818 14.3582 52.2038 14.2462 51.7184 14.2462C50.8504 14.2462 50.2111 14.5635 49.8004 15.1982C49.5951 15.1329 49.4224 15.0302 49.2824 14.8902C49.1424 14.7409 49.0724 14.5822 49.0724 14.4142C49.0724 14.1342 49.1984 13.8775 49.4504 13.6442C49.7024 13.4109 50.0431 13.2242 50.4724 13.0842C50.9018 12.9442 51.3684 12.8742 51.8724 12.8742C52.8618 12.8742 53.6271 13.1075 54.1684 13.5742C54.7098 14.0315 54.9804 14.6569 54.9804 15.4502V18.9502C54.9804 19.3609 54.8498 19.6595 54.5884 19.8462C54.3271 20.0329 53.9164 20.1262 53.3564 20.1262V19.5522C53.5151 19.3935 53.6224 19.2769 53.6784 19.2022L53.6224 19.1322C53.3144 19.4589 52.9831 19.7062 52.6284 19.8742C52.2831 20.0422 51.8398 20.1262 51.2984 20.1262ZM51.7464 18.8522C52.2318 18.8522 52.6098 18.7589 52.8804 18.5722C53.1511 18.3855 53.2864 18.1195 53.2864 17.7742C53.2864 17.4382 53.1464 17.1722 52.8664 16.9762C52.5958 16.7802 52.2271 16.6822 51.7604 16.6822C51.3311 16.6822 50.9904 16.7802 50.7384 16.9762C50.4958 17.1629 50.3744 17.4289 50.3744 17.7742C50.3744 18.1289 50.4958 18.3995 50.7384 18.5862C50.9811 18.7635 51.3171 18.8522 51.7464 18.8522ZM59.2518 20.1262C58.4958 20.1262 57.9358 19.9069 57.5718 19.4682C57.2078 19.0295 57.0258 18.4649 57.0258 17.7742V14.3022H55.5838C55.5838 13.8635 55.6678 13.5369 55.8358 13.3222C56.0038 13.1075 56.2278 13.0002 56.5078 13.0002H57.0538V11.8382C57.0538 11.4555 57.1938 11.1849 57.4738 11.0262C57.7538 10.8582 58.1784 10.7742 58.7478 10.7742V13.0002H60.6098C60.6098 13.4669 60.5211 13.8029 60.3438 14.0082C60.1664 14.2042 59.8818 14.3022 59.4898 14.3022H58.7758V17.7042C58.7758 18.0309 58.8364 18.2642 58.9578 18.4042C59.0884 18.5442 59.3078 18.6142 59.6158 18.6142C59.9424 18.6142 60.2691 18.5255 60.5958 18.3482C60.6891 18.4322 60.7638 18.5395 60.8198 18.6702C60.8758 18.7915 60.9038 18.9175 60.9038 19.0482C60.9038 19.3282 60.7591 19.5802 60.4698 19.8042C60.1804 20.0189 59.7744 20.1262 59.2518 20.1262ZM65.0645 20.1262C64.1685 20.1262 63.4452 19.9675 62.8945 19.6502C62.3532 19.3235 62.0778 18.8895 62.0685 18.3482C62.0685 18.1149 62.1618 17.9189 62.3485 17.7602C62.5445 17.6015 62.8525 17.5175 63.2725 17.5082C63.3565 17.9189 63.5525 18.2362 63.8605 18.4602C64.1685 18.6749 64.5418 18.7822 64.9805 18.7822C65.4565 18.7822 65.8298 18.7215 66.1005 18.6002C66.3712 18.4789 66.5065 18.2969 66.5065 18.0542C66.5065 17.8302 66.3945 17.6435 66.1705 17.4942C65.9558 17.3449 65.5265 17.1955 64.8825 17.0462C64.1825 16.8782 63.6365 16.7102 63.2445 16.5422C62.8618 16.3742 62.5772 16.1595 62.3905 15.8982C62.2038 15.6369 62.1105 15.2915 62.1105 14.8622C62.1105 14.2649 62.3625 13.7842 62.8665 13.4202C63.3705 13.0562 64.0612 12.8742 64.9385 12.8742C65.7878 12.8742 66.4925 13.0282 67.0525 13.3362C67.6125 13.6349 67.8925 14.0362 67.8925 14.5402C67.8925 14.7922 67.7992 14.9789 67.6125 15.1002C67.4258 15.2215 67.1178 15.2869 66.6885 15.2962C66.5952 14.9229 66.4178 14.6429 66.1565 14.4562C65.8952 14.2695 65.5265 14.1762 65.0505 14.1762C64.6958 14.1762 64.3878 14.2369 64.1265 14.3582C63.8745 14.4795 63.7485 14.6382 63.7485 14.8342C63.7485 15.0395 63.8558 15.1982 64.0705 15.3102C64.2852 15.4222 64.6585 15.5342 65.1905 15.6462C66.2358 15.8702 66.9918 16.1689 67.4585 16.5422C67.9345 16.9155 68.1725 17.4242 68.1725 18.0682C68.1725 18.6935 67.8925 19.1929 67.3325 19.5662C66.7818 19.9395 66.0258 20.1262 65.0645 20.1262Z" fill="white"/>
<defs>
<filter id="filter0_d_230_81" x="0.998535" y="2" width="28.0029" height="27" filterUnits="userSpaceOnUse" color-interpolation-filters="sRGB">
<feFlood flood-opacity="0" result="BackgroundImageFix"/>
<feColorMatrix in="SourceAlpha" type="matrix" values="0 0 0 0 0 0 0 0 0 0 0 0 0 0 0 0 0 0 127 0" result="hardAlpha"/>
<feOffset dy="4"/>
<feGaussianBlur stdDeviation="2"/>
<feColorMatrix type="matrix" values="0 0 0 0 0 0 0 0 0 0 0 0 0 0 0 0 0 0 0.25 0"/>
<feBlend mode="normal" in2="BackgroundImageFix" result="effect1_dropShadow_230_81"/>
<feBlend mode="normal" in="SourceGraphic" in2="effect1_dropShadow_230_81" result="shape"/>
</filter>
</defs>
</svg>
