<svg width="20" height="19" viewBox="0 0 22 19" fill="none" xmlns="http://www.w3.org/2000/svg">
<path d="M11 0C8.2999 0.05257 5.73087 1.17378 3.85625 3.11775C1.98164 5.06173 0.954457 7.66979 0.999987 10.37V15C0.999987 15.7911 1.23458 16.5645 1.67411 17.2223C2.11363 17.8801 2.73835 18.3928 3.46925 18.6955C4.20016 18.9983 5.00442 19.0775 5.78035 18.9231C6.5563 18.7688 7.269 18.3878 7.8284 17.8284C8.3878 17.269 8.7688 16.5563 8.9231 15.7804C9.0775 15.0044 8.9983 14.2002 8.6955 13.4693C8.3928 12.7384 7.8801 12.1136 7.2223 11.6741C6.5645 11.2346 5.79111 11 4.99999 11C4.29503 11.003 3.60398 11.1964 2.99999 11.56V10.37C2.95436 8.2002 3.77079 6.10075 5.27036 4.53183C6.7699 2.96291 8.8303 2.05245 11 2C13.1697 2.05245 15.23 2.96291 16.7296 4.53183C18.2292 6.10075 19.0456 8.2002 19 10.37V11.56C18.396 11.1964 17.7049 11.003 17 11C16.2089 11 15.4355 11.2346 14.7777 11.6741C14.1199 12.1136 13.6072 12.7384 13.3045 13.4693C13.0017 14.2002 12.9225 15.0044 13.0768 15.7804C13.2312 16.5563 13.6121 17.269 14.1716 17.8284C14.731 18.3878 15.4437 18.7688 16.2196 18.9231C16.9955 19.0775 17.7998 18.9983 18.5307 18.6955C19.2616 18.3928 19.8863 17.8801 20.3259 17.2223C20.7654 16.5645 21 15.7911 21 15V10.37C21.0455 7.66979 20.0183 5.06173 18.1437 3.11775C16.2691 1.17378 13.7001 0.05257 11 0Z" fill="white"/>
</svg>
