<svg width="131" height="55" viewBox="0 0 131 55" fill="none" xmlns="http://www.w3.org/2000/svg">
<g filter="url(#filter0_d_230_85)">
<path d="M28.4783 3.79297C23.352 3.89267 18.4746 6.0191 14.9155 9.70594C11.3565 13.3928 9.40631 18.3391 9.49275 23.4602V32.2412C9.49275 33.7416 9.93813 35.2084 10.7726 36.456C11.607 37.7035 12.7931 38.6759 14.1808 39.25C15.5684 39.8242 17.0954 39.9744 18.5685 39.6816C20.0417 39.389 21.3948 38.6664 22.4568 37.6055C23.5189 36.5445 24.2422 35.1928 24.5352 33.7213C24.8283 32.2496 24.6779 30.7244 24.1031 29.3382C23.5284 27.952 22.555 26.767 21.3061 25.9335C20.0572 25.1 18.5889 24.655 17.0869 24.655C15.7485 24.6607 14.4366 25.0275 13.2898 25.7171V23.4602C13.2032 19.3451 14.7533 15.3634 17.6003 12.3878C20.4472 9.41228 24.359 7.68555 28.4783 7.58607C32.5976 7.68555 36.5091 9.41228 39.3562 12.3878C42.2033 15.3634 43.7533 19.3451 43.6667 23.4602V25.7171C42.52 25.0275 41.2079 24.6607 39.8696 24.655C38.3676 24.655 36.8993 25.1 35.6504 25.9335C34.4016 26.767 33.4282 27.952 32.8535 29.3382C32.2786 30.7244 32.1282 32.2496 32.4212 33.7213C32.7143 35.1928 33.4375 36.5445 34.4997 37.6055C35.5618 38.6664 36.9149 39.389 38.3879 39.6816C39.861 39.9744 41.388 39.8242 42.7757 39.25C44.1633 38.6759 45.3494 37.7035 46.184 36.456C47.0184 35.2084 47.4638 33.7416 47.4638 32.2412V23.4602C47.5502 18.3391 45.6 13.3928 42.0409 9.70594C38.4819 6.0191 33.6045 3.89267 28.4783 3.79297Z" fill="#034093"/>
</g>
<path d="M64.2203 21.3358C64.2203 20.6278 64.4951 20.079 65.0443 19.6896C65.6114 19.3002 66.453 19.1055 67.5694 19.1055V25.2655C67.3212 25.4602 67.1265 25.6372 66.9846 25.7965L67.0909 25.9293C67.5694 25.469 68.1896 25.1062 68.9515 24.8406C69.7313 24.5575 70.4489 24.4158 71.1045 24.4158C72.6816 24.4158 73.9396 24.8583 74.8788 25.7434C75.818 26.6107 76.2875 27.7524 76.2875 29.1686V33.3903C76.2875 34.3107 76.0572 35.1338 75.5965 35.8596C75.1357 36.5854 74.5156 37.1517 73.7359 37.5589C72.9561 37.9661 72.1234 38.1696 71.2374 38.1696C70.2982 38.1696 69.4742 37.9837 68.7655 37.612C68.0744 37.2227 67.4454 36.6562 66.8783 35.9127L66.772 36.0189C66.8428 36.1428 66.9315 36.2668 67.0378 36.3906C67.1441 36.5145 67.2238 36.612 67.277 36.6827C67.277 37.1783 67.0378 37.55 66.5593 37.7979C66.0809 38.0458 65.3012 38.1696 64.2203 38.1696V21.3358ZM70.2539 35.302C71.14 35.302 71.8132 35.1251 72.274 34.771C72.7524 34.3993 72.9916 33.8593 72.9916 33.1513V29.381C72.9916 28.7083 72.7524 28.1951 72.274 27.841C71.7956 27.4693 71.1221 27.2834 70.2539 27.2834C69.4742 27.2834 68.8186 27.4782 68.287 27.8675C67.7731 28.2569 67.5162 28.7261 67.5162 29.2748V33.2841C67.5162 33.8682 67.7731 34.3551 68.287 34.7444C68.801 35.1162 69.4565 35.302 70.2539 35.302ZM85.0436 38.1696C83.9449 38.1696 82.9438 37.9572 82.0401 37.5324C81.1364 37.0899 80.4188 36.4968 79.8872 35.7534C79.3556 34.9923 79.0898 34.1427 79.0898 33.2044V29.6731C79.0898 28.6817 79.3645 27.7879 79.9138 26.9913C80.463 26.1948 81.1896 25.5665 82.0933 25.1062C83.0147 24.6459 84.007 24.4158 85.0702 24.4158C86.1157 24.4158 87.0726 24.6371 87.9408 25.0796C88.8269 25.5044 89.5267 26.1062 90.0406 26.8851C90.5546 27.6462 90.8114 28.5224 90.8114 29.5137V31.0006C90.8114 31.39 90.6609 31.7175 90.3596 31.9831C90.0761 32.2486 89.7127 32.3813 89.2698 32.3813H82.3059V32.9655C82.3059 33.7266 82.5362 34.3462 82.997 34.8241C83.4578 35.302 84.1489 35.541 85.0702 35.541C85.9563 35.541 86.6118 35.3462 87.0371 34.9568C87.4801 34.5675 87.7016 34.063 87.7016 33.4434C88.0206 33.4079 88.2421 33.3903 88.3661 33.3903C89.0217 33.3903 89.5356 33.5407 89.9077 33.8417C90.2798 34.1248 90.4659 34.532 90.4659 35.0631C90.4659 35.5765 90.2267 36.072 89.7482 36.5499C89.2698 37.0279 88.6142 37.4172 87.7814 37.7182C86.9485 38.0192 86.036 38.1696 85.0436 38.1696ZM87.8079 30.0182V29.5137C87.8079 28.7703 87.5511 28.1685 87.0371 27.7082C86.5232 27.2479 85.8587 27.0179 85.0436 27.0179C84.2286 27.0179 83.5641 27.2479 83.0502 27.7082C82.5541 28.1507 82.3059 28.7527 82.3059 29.5137V30.0182H87.8079ZM97.3926 38.1696C96.4889 38.1696 95.6562 37.9927 94.8941 37.6386C94.1498 37.2845 93.5474 36.78 93.0867 36.1251C92.6437 35.4524 92.4222 34.6559 92.4222 33.7355C92.4222 32.8151 92.6614 32.0185 93.1398 31.3458C93.6183 30.6555 94.2651 30.1333 95.0801 29.7793C95.913 29.4075 96.8257 29.2217 97.8178 29.2217C98.6331 29.2217 99.3595 29.3544 99.9974 29.62C100.653 29.8678 101.256 30.2483 101.805 30.7617L101.938 30.6289C101.778 30.4696 101.504 30.2306 101.114 29.912V29.381C101.114 28.6552 100.857 28.08 100.343 27.6551C99.8292 27.2303 99.1115 27.0179 98.19 27.0179C96.542 27.0179 95.3283 27.6197 94.5485 28.8234C94.1588 28.6996 93.8309 28.5048 93.5651 28.2393C93.2993 27.9561 93.1664 27.6551 93.1664 27.3365C93.1664 26.8055 93.4056 26.3186 93.8841 25.8762C94.3625 25.4337 95.0093 25.0796 95.8244 24.8141C96.6396 24.5486 97.5255 24.4158 98.4823 24.4158C100.361 24.4158 101.814 24.8583 102.841 25.7434C103.869 26.6107 104.383 27.7968 104.383 29.3013V35.9393C104.383 36.7182 104.135 37.2845 103.639 37.6386C103.143 37.9927 102.363 38.1696 101.3 38.1696V37.081C101.601 36.78 101.805 36.5589 101.911 36.4172L101.805 36.2844C101.22 36.904 100.591 37.3731 99.9176 37.6917C99.2621 38.0103 98.4205 38.1696 97.3926 38.1696ZM98.2431 35.7534C99.1647 35.7534 99.8823 35.5765 100.396 35.2224C100.91 34.8683 101.167 34.3638 101.167 33.7089C101.167 33.0717 100.901 32.5672 100.37 32.1955C99.8558 31.8237 99.1558 31.6379 98.2697 31.6379C97.4547 31.6379 96.8078 31.8237 96.3294 32.1955C95.8688 32.5496 95.6383 33.054 95.6383 33.7089C95.6383 34.3816 95.8688 34.8948 96.3294 35.2489C96.7902 35.5852 97.4281 35.7534 98.2431 35.7534ZM112.493 38.1696C111.057 38.1696 109.994 37.7537 109.303 36.9217C108.612 36.0897 108.266 35.0189 108.266 33.7089V27.1241H105.529C105.529 26.2921 105.688 25.6727 106.007 25.2655C106.326 24.8583 106.751 24.6548 107.283 24.6548H108.319V22.451C108.319 21.7252 108.585 21.212 109.117 20.911C109.648 20.5924 110.455 20.4331 111.536 20.4331V24.6548H115.071C115.071 25.5399 114.902 26.1771 114.566 26.5665C114.229 26.9382 113.689 27.1241 112.944 27.1241H111.589V33.5762C111.589 34.1958 111.704 34.6382 111.934 34.9037C112.182 35.1693 112.599 35.302 113.184 35.302C113.804 35.302 114.424 35.1338 115.044 34.7975C115.221 34.9568 115.363 35.1603 115.469 35.4082C115.576 35.6383 115.629 35.8772 115.629 36.1251C115.629 36.6562 115.354 37.1341 114.805 37.5589C114.256 37.9661 113.485 38.1696 112.493 38.1696ZM123.528 38.1696C121.827 38.1696 120.454 37.8686 119.408 37.2668C118.381 36.6472 117.858 35.8241 117.84 34.7975C117.84 34.3551 118.017 33.9833 118.372 33.6824C118.744 33.3814 119.329 33.2221 120.126 33.2044C120.285 33.9833 120.658 34.5851 121.242 35.0099C121.827 35.4171 122.536 35.6206 123.369 35.6206C124.272 35.6206 124.981 35.5055 125.495 35.2755C126.009 35.0454 126.266 34.7002 126.266 34.24C126.266 33.8151 126.053 33.461 125.628 33.1779C125.22 32.8947 124.405 32.6114 123.183 32.3282C121.854 32.0096 120.817 31.691 120.073 31.3724C119.346 31.0537 118.806 30.6466 118.451 30.151C118.097 29.6554 117.92 29.0003 117.92 28.1862C117.92 27.0533 118.398 26.1417 119.355 25.4513C120.312 24.761 121.623 24.4158 123.289 24.4158C124.901 24.4158 126.239 24.7079 127.303 25.292C128.366 25.8585 128.897 26.6196 128.897 27.5755C128.897 28.0534 128.72 28.4075 128.366 28.6375C128.011 28.8676 127.427 28.9916 126.611 29.0093C126.434 28.3013 126.098 27.7702 125.601 27.4162C125.105 27.0621 124.405 26.8851 123.502 26.8851C122.828 26.8851 122.243 27.0002 121.747 27.2303C121.269 27.4603 121.03 27.7613 121.03 28.1331C121.03 28.5224 121.233 28.8234 121.641 29.0358C122.049 29.2482 122.757 29.4606 123.767 29.6731C125.752 30.0979 127.187 30.6644 128.073 31.3724C128.977 32.0803 129.429 33.0451 129.429 34.2665C129.429 35.4524 128.897 36.3996 127.834 37.1075C126.789 37.8155 125.353 38.1696 123.528 38.1696Z" fill="#034093"/>
<defs>
<filter id="filter0_d_230_85" x="5.48999" y="3.79297" width="45.9766" height="44.0352" filterUnits="userSpaceOnUse" color-interpolation-filters="sRGB">
<feFlood flood-opacity="0" result="BackgroundImageFix"/>
<feColorMatrix in="SourceAlpha" type="matrix" values="0 0 0 0 0 0 0 0 0 0 0 0 0 0 0 0 0 0 127 0" result="hardAlpha"/>
<feOffset dy="4"/>
<feGaussianBlur stdDeviation="2"/>
<feColorMatrix type="matrix" values="0 0 0 0 0 0 0 0 0 0 0 0 0 0 0 0 0 0 0.25 0"/>
<feBlend mode="normal" in2="BackgroundImageFix" result="effect1_dropShadow_230_85"/>
<feBlend mode="normal" in="SourceGraphic" in2="effect1_dropShadow_230_85" result="shape"/>
</filter>
</defs>
</svg>
