<svg width="50" height="50" viewBox="0 0 50 50" fill="none" xmlns="http://www.w3.org/2000/svg">
<path d="M25 0.833984C11.66 0.833984 0.833313 11.6607 0.833313 25.0007C0.833313 38.3407 11.66 49.1673 25 49.1673C38.34 49.1673 49.1666 38.3407 49.1666 25.0007C49.1666 11.6607 38.34 0.833984 25 0.833984ZM28.625 10.5007C29.9541 10.5007 31.0416 11.5882 31.0416 12.9173C31.0416 14.2465 29.9541 15.334 28.625 15.334C27.2958 15.334 26.2083 14.2465 26.2083 12.9173C26.2083 11.5882 27.2958 10.5007 28.625 10.5007ZM33.2408 24.7832C31.525 24.2998 29.3016 22.9948 27.6341 20.7715L26.6433 26.4507L29.5191 29.5923C29.7125 29.7857 29.8333 30.0757 29.8333 30.3657V38.2923C29.8333 38.969 29.3016 39.5007 28.625 39.5007C27.9483 39.5007 27.4166 38.969 27.4166 38.2923V30.849L24.7341 27.9248L23.695 33.1207C23.5741 33.7732 22.9216 34.2082 22.2691 34.0632L15.5508 32.6857C15.3953 32.6539 15.2475 32.5919 15.116 32.5031C14.9845 32.4143 14.8717 32.3004 14.7842 32.168C14.6967 32.0356 14.6361 31.8872 14.6059 31.7314C14.5757 31.5756 14.5765 31.4153 14.6083 31.2598C14.7533 30.6073 15.3816 30.1965 16.0341 30.3173L21.5683 31.4532L23.8883 19.6357L20.1666 21.0132V23.7923C20.1666 24.469 19.635 25.0007 18.9583 25.0007C18.2816 25.0007 17.75 24.469 17.75 23.7923V20.1673C17.75 19.6598 18.0641 19.2007 18.5475 19.0315L25.6766 16.3973C26.2431 16.1882 26.8673 16.1988 27.4264 16.4269C27.9855 16.655 28.439 17.0841 28.6975 17.6298C30.2683 20.8923 32.4433 22.1007 33.7725 22.4632C34.3041 22.584 34.6666 23.019 34.6666 23.5507V23.6473C34.6666 24.3965 33.9658 24.9765 33.2408 24.7832Z" fill="#034093"/>
</svg>
