<svg width="20" height="22" viewBox="0 0 20 22" fill="none" xmlns="http://www.w3.org/2000/svg">
<path fill-rule="evenodd" clip-rule="evenodd" d="M13.945 20.9567C12.0306 21.8925 9.84628 22.1187 7.78077 21.595C5.71526 21.0713 3.90255 19.8317 2.66526 18.0969C1.42797 16.362 0.846358 14.2444 1.02393 12.121C1.20151 9.99754 2.12675 8.00597 3.635 6.50072L10 0.136719L16.364 6.50072C17.225 7.35939 17.9023 8.38415 18.355 9.51272C19.0111 11.1492 19.1722 12.9424 18.8182 14.6696C18.4643 16.3969 17.6109 17.9822 16.364 19.2287C15.6592 19.935 14.8417 20.519 13.945 20.9567ZM5.05 7.91472L10 2.96472L14.95 7.91472C16.2238 9.18535 16.9576 10.899 16.998 12.6977H3.002C3.04231 10.8989 3.77607 9.18529 5.05 7.91472Z" fill="white"/>
</svg>
